<svg width="824" height="174" viewBox="0 0 824 174" fill="none" xmlns="http://www.w3.org/2000/svg">
    <path d="M227.472 61.776V111H236.88V61.776H253.092V53.46H211.092V61.776H227.472ZM268.915 78.072V111H259.759V51.528H268.915V71.184C273.003 69.112 276.839 68.076 280.423 68.076C283.223 68.076 285.547 68.468 287.395 69.252C289.243 69.98 290.727 71.184 291.847 72.864C292.967 74.488 293.751 76.588 294.199 79.164C294.703 81.74 294.955 84.848 294.955 88.488V111H285.799V88.74C285.799 86.444 285.687 84.512 285.463 82.944C285.295 81.376 284.931 80.088 284.371 79.08C283.811 78.072 283.027 77.344 282.019 76.896C281.067 76.448 279.835 76.224 278.323 76.224C275.579 76.224 272.891 76.672 270.259 77.568L268.915 78.072ZM335.518 103.44L337.87 103.188L338.038 109.992C334.846 110.608 331.85 111.084 329.05 111.42C326.25 111.756 323.59 111.924 321.07 111.924C314.854 111.924 310.374 110.216 307.63 106.8C304.942 103.384 303.598 97.924 303.598 90.42C303.598 75.524 309.674 68.076 321.826 68.076C333.586 68.076 339.466 74.488 339.466 87.312L338.878 93.864H312.838C312.894 97.336 313.65 99.884 315.106 101.508C316.562 103.132 319.278 103.944 323.254 103.944C327.23 103.944 331.318 103.776 335.518 103.44ZM312.754 86.808H330.478C330.478 82.608 329.834 79.696 328.546 78.072C327.258 76.448 325.018 75.636 321.826 75.636C318.634 75.636 316.338 76.504 314.938 78.24C313.538 79.92 312.81 82.776 312.754 86.808ZM388.904 93.108H377.144V111H367.82V53.46H388.904C401.952 53.46 408.476 59.9 408.476 72.78C408.476 79.388 406.852 84.428 403.604 87.9C400.356 91.372 395.456 93.108 388.904 93.108ZM377.144 61.524V85.044H388.82C395.54 85.044 398.9 80.956 398.9 72.78C398.9 68.86 398.088 66.004 396.464 64.212C394.896 62.42 392.348 61.524 388.82 61.524H377.144ZM425.513 111V69H416.356V111H425.513ZM425.513 61.86V52.2H416.356V61.86H425.513ZM459.214 69V76.812H447.622V95.292C447.622 96.972 447.65 98.372 447.706 99.492C447.818 100.612 448.042 101.48 448.378 102.096C448.714 102.712 449.19 103.16 449.806 103.44C450.422 103.664 451.234 103.776 452.242 103.776L459.13 103.524L459.55 110.832C455.91 111.56 453.054 111.924 450.982 111.924C448.63 111.924 446.642 111.672 445.018 111.168C443.45 110.664 442.162 109.824 441.154 108.648C440.202 107.472 439.53 105.876 439.138 103.86C438.746 101.844 438.55 99.324 438.55 96.3V76.812H433.174V69H438.55V56.82H447.622V69H459.214ZM522.561 111V102.768H495.597V85.968H517.521V77.904H495.597V61.608H522.561V53.46H486.273V111H522.561ZM539.758 89.916L527.578 111H537.322L545.554 96.636L553.87 111H563.614L551.098 89.664L563.614 69H553.87L545.554 83.532L537.322 69H527.578L539.758 89.916ZM586.283 68.076C589.083 68.076 592.583 68.468 596.783 69.252L598.883 69.672L598.547 76.896C596.307 76.672 594.375 76.504 592.751 76.392C591.127 76.28 589.783 76.224 588.719 76.224C586.591 76.224 584.827 76.448 583.427 76.896C582.083 77.288 580.991 78.016 580.151 79.08C579.367 80.144 578.807 81.544 578.471 83.28C578.135 85.016 577.967 87.2 577.967 89.832C577.967 92.464 578.107 94.676 578.387 96.468C578.723 98.204 579.283 99.632 580.067 100.752C580.851 101.816 581.943 102.6 583.343 103.104C584.799 103.552 586.619 103.776 588.803 103.776L598.631 103.104L598.883 110.412C593.283 111.42 589.027 111.924 586.115 111.924C582.923 111.924 580.207 111.504 577.967 110.664C575.783 109.824 573.991 108.536 572.591 106.8C571.247 105.008 570.267 102.712 569.651 99.912C569.035 97.112 568.727 93.752 568.727 89.832C568.727 85.912 569.063 82.58 569.735 79.836C570.407 77.036 571.443 74.768 572.843 73.032C574.243 71.296 576.063 70.036 578.303 69.252C580.543 68.468 583.203 68.076 586.283 68.076ZM616.891 78.072V111H607.735V51.528H616.891V71.184C620.979 69.112 624.815 68.076 628.399 68.076C631.199 68.076 633.523 68.468 635.371 69.252C637.219 69.98 638.703 71.184 639.823 72.864C640.943 74.488 641.727 76.588 642.175 79.164C642.679 81.74 642.931 84.848 642.931 88.488V111H633.775V88.74C633.775 86.444 633.663 84.512 633.439 82.944C633.271 81.376 632.907 80.088 632.347 79.08C631.787 78.072 631.003 77.344 629.995 76.896C629.043 76.448 627.811 76.224 626.299 76.224C623.555 76.224 620.867 76.672 618.235 77.568L616.891 78.072ZM684.671 81.936V101.088C684.727 102.32 685.035 103.244 685.595 103.86C686.211 104.42 687.135 104.784 688.367 104.952L688.115 111.924C683.243 111.924 679.519 110.888 676.943 108.816C672.575 110.888 668.067 111.924 663.419 111.924C655.075 111.924 650.903 107.472 650.903 98.568C650.903 94.312 652.023 91.232 654.263 89.328C656.503 87.424 660.003 86.276 664.763 85.884L675.599 84.96V81.936C675.599 79.696 675.095 78.128 674.087 77.232C673.135 76.336 671.707 75.888 669.803 75.888C668.011 75.888 665.995 75.944 663.755 76.056C661.515 76.168 659.051 76.336 656.363 76.56L653.675 76.728L653.339 70.26C659.611 68.804 665.239 68.076 670.223 68.076C675.375 68.076 679.071 69.168 681.311 71.352C683.551 73.536 684.671 77.064 684.671 81.936ZM675.599 91.428L665.855 92.352C661.991 92.688 660.059 94.788 660.059 98.652C660.059 102.516 661.767 104.448 665.183 104.448C668.095 104.448 671.063 104 674.087 103.104L675.599 102.6V91.428ZM705.321 78.408V111H696.165V69H705.237V71.604C709.381 69.252 713.245 68.076 716.829 68.076C719.629 68.076 721.953 68.468 723.801 69.252C725.649 69.98 727.133 71.184 728.253 72.864C729.373 74.488 730.157 76.588 730.605 79.164C731.109 81.74 731.361 84.848 731.361 88.488V111H722.289V88.74C722.289 86.444 722.177 84.512 721.953 82.944C721.729 81.376 721.337 80.088 720.777 79.08C720.273 78.072 719.517 77.344 718.509 76.896C717.557 76.448 716.325 76.224 714.813 76.224C712.013 76.224 709.269 76.784 706.581 77.904L705.321 78.408ZM778.729 116.712C778.729 125.896 772.093 130.488 758.821 130.488C752.437 130.488 747.705 129.62 744.625 127.884C741.545 126.148 740.005 122.984 740.005 118.392C740.005 116.32 740.509 114.528 741.517 113.016C742.525 111.56 744.149 109.964 746.389 108.228C744.541 106.94 743.617 104.896 743.617 102.096C743.617 100.976 744.373 99.156 745.885 96.636L746.641 95.376C742.609 92.912 740.593 88.712 740.593 82.776C740.593 77.68 742.077 73.984 745.045 71.688C748.069 69.336 752.185 68.16 757.393 68.16C759.969 68.16 762.405 68.44 764.701 69L765.961 69.252L778.981 68.916V76.308L772.009 75.888C773.521 77.792 774.277 80.088 774.277 82.776C774.277 85.52 773.941 87.816 773.269 89.664C772.597 91.512 771.533 93.024 770.077 94.2C768.677 95.32 766.913 96.132 764.785 96.636C762.657 97.084 760.109 97.308 757.141 97.308C755.573 97.308 754.341 97.196 753.445 96.972C752.661 98.988 752.269 100.444 752.269 101.34C752.269 102.404 752.801 103.132 753.865 103.524C754.369 103.748 755.237 103.916 756.469 104.028C757.757 104.084 759.381 104.14 761.341 104.196C764.701 104.196 767.473 104.42 769.657 104.868C771.897 105.26 773.689 105.932 775.033 106.884C776.377 107.836 777.329 109.124 777.889 110.748C778.449 112.316 778.729 114.304 778.729 116.712ZM749.665 82.776C749.665 85.352 750.281 87.256 751.513 88.488C752.745 89.664 754.733 90.252 757.477 90.252C760.221 90.252 762.181 89.664 763.357 88.488C764.589 87.256 765.205 85.352 765.205 82.776C765.205 80.2 764.589 78.324 763.357 77.148C762.125 75.916 760.137 75.3 757.393 75.3C752.241 75.3 749.665 77.792 749.665 82.776ZM748.993 117.552C748.993 119.512 749.749 120.912 751.261 121.752C752.829 122.592 755.545 123.012 759.409 123.012C766.185 123.012 769.573 121.08 769.573 117.216C769.573 116.152 769.433 115.284 769.153 114.612C768.873 113.94 768.397 113.408 767.725 113.016C767.053 112.68 766.129 112.428 764.953 112.26C763.833 112.148 762.377 112.092 760.585 112.092L752.353 111.588C751.121 112.596 750.253 113.52 749.749 114.36C749.245 115.256 748.993 116.32 748.993 117.552ZM816.057 103.44L818.409 103.188L818.577 109.992C815.385 110.608 812.389 111.084 809.589 111.42C806.789 111.756 804.129 111.924 801.609 111.924C795.393 111.924 790.913 110.216 788.169 106.8C785.481 103.384 784.137 97.924 784.137 90.42C784.137 75.524 790.213 68.076 802.365 68.076C814.125 68.076 820.005 74.488 820.005 87.312L819.417 93.864H793.377C793.433 97.336 794.189 99.884 795.645 101.508C797.101 103.132 799.817 103.944 803.793 103.944C807.769 103.944 811.857 103.776 816.057 103.44ZM793.293 86.808H811.017C811.017 82.608 810.373 79.696 809.085 78.072C807.797 76.448 805.557 75.636 802.365 75.636C799.173 75.636 796.877 76.504 795.477 78.24C794.077 79.92 793.349 82.776 793.293 86.808Z" fill="black" />
    <rect x="169" y="70" width="34" height="83" rx="17" transform="rotate(90 169 70)" fill="#3A91E1" stroke="black" stroke-width="2" />
    <rect x="68" y="88" width="34" height="85" rx="17" fill="#4DC4EA" stroke="black" stroke-width="2" />
    <rect x="84" y="70" width="34" height="83" rx="17" transform="rotate(90 84 70)" fill="#5E75EA" stroke="black" stroke-width="2" />
    <rect x="68" y="1" width="34" height="85" rx="17" fill="#464DE8" stroke="black" stroke-width="2" />
    <circle cx="85" cy="87" r="5" fill="#6951FF" stroke="black" stroke-width="2" />
</svg>