<svg width="823" height="174" viewBox="0 0 823 174" fill="none" xmlns="http://www.w3.org/2000/svg">
<path d="M226.472 61.776V111H235.88V61.776H252.092V53.46H210.092V61.776H226.472ZM267.915 78.072V111H258.759V51.528H267.915V71.184C272.003 69.112 275.839 68.076 279.423 68.076C282.223 68.076 284.547 68.468 286.395 69.252C288.243 69.98 289.727 71.184 290.847 72.864C291.967 74.488 292.751 76.588 293.199 79.164C293.703 81.74 293.955 84.848 293.955 88.488V111H284.799V88.74C284.799 86.444 284.687 84.512 284.463 82.944C284.295 81.376 283.931 80.088 283.371 79.08C282.811 78.072 282.027 77.344 281.019 76.896C280.067 76.448 278.835 76.224 277.323 76.224C274.579 76.224 271.891 76.672 269.259 77.568L267.915 78.072ZM334.518 103.44L336.87 103.188L337.038 109.992C333.846 110.608 330.85 111.084 328.05 111.42C325.25 111.756 322.59 111.924 320.07 111.924C313.854 111.924 309.374 110.216 306.63 106.8C303.942 103.384 302.598 97.924 302.598 90.42C302.598 75.524 308.674 68.076 320.826 68.076C332.586 68.076 338.466 74.488 338.466 87.312L337.878 93.864H311.838C311.894 97.336 312.65 99.884 314.106 101.508C315.562 103.132 318.278 103.944 322.254 103.944C326.23 103.944 330.318 103.776 334.518 103.44ZM311.754 86.808H329.478C329.478 82.608 328.834 79.696 327.546 78.072C326.258 76.448 324.018 75.636 320.826 75.636C317.634 75.636 315.338 76.504 313.938 78.24C312.538 79.92 311.81 82.776 311.754 86.808ZM387.904 93.108H376.144V111H366.82V53.46H387.904C400.952 53.46 407.476 59.9 407.476 72.78C407.476 79.388 405.852 84.428 402.604 87.9C399.356 91.372 394.456 93.108 387.904 93.108ZM376.144 61.524V85.044H387.82C394.54 85.044 397.9 80.956 397.9 72.78C397.9 68.86 397.088 66.004 395.464 64.212C393.896 62.42 391.348 61.524 387.82 61.524H376.144ZM424.513 111V69H415.356V111H424.513ZM424.513 61.86V52.2H415.356V61.86H424.513ZM458.214 69V76.812H446.622V95.292C446.622 96.972 446.65 98.372 446.706 99.492C446.818 100.612 447.042 101.48 447.378 102.096C447.714 102.712 448.19 103.16 448.806 103.44C449.422 103.664 450.234 103.776 451.242 103.776L458.13 103.524L458.55 110.832C454.91 111.56 452.054 111.924 449.982 111.924C447.63 111.924 445.642 111.672 444.018 111.168C442.45 110.664 441.162 109.824 440.154 108.648C439.202 107.472 438.53 105.876 438.138 103.86C437.746 101.844 437.55 99.324 437.55 96.3V76.812H432.174V69H437.55V56.82H446.622V69H458.214ZM521.561 111V102.768H494.597V85.968H516.521V77.904H494.597V61.608H521.561V53.46H485.273V111H521.561ZM538.758 89.916L526.578 111H536.322L544.554 96.636L552.87 111H562.614L550.098 89.664L562.614 69H552.87L544.554 83.532L536.322 69H526.578L538.758 89.916ZM585.283 68.076C588.083 68.076 591.583 68.468 595.783 69.252L597.883 69.672L597.547 76.896C595.307 76.672 593.375 76.504 591.751 76.392C590.127 76.28 588.783 76.224 587.719 76.224C585.591 76.224 583.827 76.448 582.427 76.896C581.083 77.288 579.991 78.016 579.151 79.08C578.367 80.144 577.807 81.544 577.471 83.28C577.135 85.016 576.967 87.2 576.967 89.832C576.967 92.464 577.107 94.676 577.387 96.468C577.723 98.204 578.283 99.632 579.067 100.752C579.851 101.816 580.943 102.6 582.343 103.104C583.799 103.552 585.619 103.776 587.803 103.776L597.631 103.104L597.883 110.412C592.283 111.42 588.027 111.924 585.115 111.924C581.923 111.924 579.207 111.504 576.967 110.664C574.783 109.824 572.991 108.536 571.591 106.8C570.247 105.008 569.267 102.712 568.651 99.912C568.035 97.112 567.727 93.752 567.727 89.832C567.727 85.912 568.063 82.58 568.735 79.836C569.407 77.036 570.443 74.768 571.843 73.032C573.243 71.296 575.063 70.036 577.303 69.252C579.543 68.468 582.203 68.076 585.283 68.076ZM615.891 78.072V111H606.735V51.528H615.891V71.184C619.979 69.112 623.815 68.076 627.399 68.076C630.199 68.076 632.523 68.468 634.371 69.252C636.219 69.98 637.703 71.184 638.823 72.864C639.943 74.488 640.727 76.588 641.175 79.164C641.679 81.74 641.931 84.848 641.931 88.488V111H632.775V88.74C632.775 86.444 632.663 84.512 632.439 82.944C632.271 81.376 631.907 80.088 631.347 79.08C630.787 78.072 630.003 77.344 628.995 76.896C628.043 76.448 626.811 76.224 625.299 76.224C622.555 76.224 619.867 76.672 617.235 77.568L615.891 78.072ZM683.671 81.936V101.088C683.727 102.32 684.035 103.244 684.595 103.86C685.211 104.42 686.135 104.784 687.367 104.952L687.115 111.924C682.243 111.924 678.519 110.888 675.943 108.816C671.575 110.888 667.067 111.924 662.419 111.924C654.075 111.924 649.903 107.472 649.903 98.568C649.903 94.312 651.023 91.232 653.263 89.328C655.503 87.424 659.003 86.276 663.763 85.884L674.599 84.96V81.936C674.599 79.696 674.095 78.128 673.087 77.232C672.135 76.336 670.707 75.888 668.803 75.888C667.011 75.888 664.995 75.944 662.755 76.056C660.515 76.168 658.051 76.336 655.363 76.56L652.675 76.728L652.339 70.26C658.611 68.804 664.239 68.076 669.223 68.076C674.375 68.076 678.071 69.168 680.311 71.352C682.551 73.536 683.671 77.064 683.671 81.936ZM674.599 91.428L664.855 92.352C660.991 92.688 659.059 94.788 659.059 98.652C659.059 102.516 660.767 104.448 664.183 104.448C667.095 104.448 670.063 104 673.087 103.104L674.599 102.6V91.428ZM704.321 78.408V111H695.165V69H704.237V71.604C708.381 69.252 712.245 68.076 715.829 68.076C718.629 68.076 720.953 68.468 722.801 69.252C724.649 69.98 726.133 71.184 727.253 72.864C728.373 74.488 729.157 76.588 729.605 79.164C730.109 81.74 730.361 84.848 730.361 88.488V111H721.289V88.74C721.289 86.444 721.177 84.512 720.953 82.944C720.729 81.376 720.337 80.088 719.777 79.08C719.273 78.072 718.517 77.344 717.509 76.896C716.557 76.448 715.325 76.224 713.813 76.224C711.013 76.224 708.269 76.784 705.581 77.904L704.321 78.408ZM777.729 116.712C777.729 125.896 771.093 130.488 757.821 130.488C751.437 130.488 746.705 129.62 743.625 127.884C740.545 126.148 739.005 122.984 739.005 118.392C739.005 116.32 739.509 114.528 740.517 113.016C741.525 111.56 743.149 109.964 745.389 108.228C743.541 106.94 742.617 104.896 742.617 102.096C742.617 100.976 743.373 99.156 744.885 96.636L745.641 95.376C741.609 92.912 739.593 88.712 739.593 82.776C739.593 77.68 741.077 73.984 744.045 71.688C747.069 69.336 751.185 68.16 756.393 68.16C758.969 68.16 761.405 68.44 763.701 69L764.961 69.252L777.981 68.916V76.308L771.009 75.888C772.521 77.792 773.277 80.088 773.277 82.776C773.277 85.52 772.941 87.816 772.269 89.664C771.597 91.512 770.533 93.024 769.077 94.2C767.677 95.32 765.913 96.132 763.785 96.636C761.657 97.084 759.109 97.308 756.141 97.308C754.573 97.308 753.341 97.196 752.445 96.972C751.661 98.988 751.269 100.444 751.269 101.34C751.269 102.404 751.801 103.132 752.865 103.524C753.369 103.748 754.237 103.916 755.469 104.028C756.757 104.084 758.381 104.14 760.341 104.196C763.701 104.196 766.473 104.42 768.657 104.868C770.897 105.26 772.689 105.932 774.033 106.884C775.377 107.836 776.329 109.124 776.889 110.748C777.449 112.316 777.729 114.304 777.729 116.712ZM748.665 82.776C748.665 85.352 749.281 87.256 750.513 88.488C751.745 89.664 753.733 90.252 756.477 90.252C759.221 90.252 761.181 89.664 762.357 88.488C763.589 87.256 764.205 85.352 764.205 82.776C764.205 80.2 763.589 78.324 762.357 77.148C761.125 75.916 759.137 75.3 756.393 75.3C751.241 75.3 748.665 77.792 748.665 82.776ZM747.993 117.552C747.993 119.512 748.749 120.912 750.261 121.752C751.829 122.592 754.545 123.012 758.409 123.012C765.185 123.012 768.573 121.08 768.573 117.216C768.573 116.152 768.433 115.284 768.153 114.612C767.873 113.94 767.397 113.408 766.725 113.016C766.053 112.68 765.129 112.428 763.953 112.26C762.833 112.148 761.377 112.092 759.585 112.092L751.353 111.588C750.121 112.596 749.253 113.52 748.749 114.36C748.245 115.256 747.993 116.32 747.993 117.552ZM815.057 103.44L817.409 103.188L817.577 109.992C814.385 110.608 811.389 111.084 808.589 111.42C805.789 111.756 803.129 111.924 800.609 111.924C794.393 111.924 789.913 110.216 787.169 106.8C784.481 103.384 783.137 97.924 783.137 90.42C783.137 75.524 789.213 68.076 801.365 68.076C813.125 68.076 819.005 74.488 819.005 87.312L818.417 93.864H792.377C792.433 97.336 793.189 99.884 794.645 101.508C796.101 103.132 798.817 103.944 802.793 103.944C806.769 103.944 810.857 103.776 815.057 103.44ZM792.293 86.808H810.017C810.017 82.608 809.373 79.696 808.085 78.072C806.797 76.448 804.557 75.636 801.365 75.636C798.173 75.636 795.877 76.504 794.477 78.24C793.077 79.92 792.349 82.776 792.293 86.808Z" fill="black"/>
<rect x="169" y="70" width="34" height="83" rx="17" transform="rotate(90 169 70)" fill="#3A91E1" stroke="black" stroke-width="2"/>
<rect x="68" y="88" width="34" height="85" rx="17" fill="#4DC4EA" stroke="black" stroke-width="2"/>
<rect x="84" y="70" width="34" height="83" rx="17" transform="rotate(90 84 70)" fill="#5E75EA" stroke="black" stroke-width="2"/>
<rect x="68" y="1" width="34" height="85" rx="17" fill="#464DE8" stroke="black" stroke-width="2"/>
<circle cx="85" cy="87" r="5" fill="#6951FF" stroke="black" stroke-width="2"/>
</svg>
